<?xml version="1.0" encoding="iso-8859-1"?>
<!-- Generator: Adobe Illustrator 19.0.0, SVG Export Plug-In . SVG Version: 6.00 Build 0)  -->
<svg version="1.1" id="Capa_1" xmlns="http://www.w3.org/2000/svg" xmlns:xlink="http://www.w3.org/1999/xlink" x="0px" y="0px"
	 viewBox="0 0 512 512" style="enable-background:new 0 0 512 512;" xml:space="preserve">
<g>
	<g>
		<g>
			<path d="M362.667,85.333h-4.693l-17.28-69.184C338.316,6.657,329.785,0,320,0H192c-9.785,0-18.316,6.657-20.693,16.149
				l-17.28,69.184h-4.693c-35.346,0-64,28.654-64,64v213.333c0,35.346,28.654,64,64,64h4.693l17.301,69.184
				C173.704,505.335,182.223,511.99,192,512h128c9.785,0,18.316-6.657,20.693-16.149l17.28-69.184h4.693c35.346,0,64-28.654,64-64
				V149.333C426.667,113.987,398.013,85.333,362.667,85.333z M208.661,42.667h94.677l10.667,42.667H197.995L208.661,42.667z
				 M303.339,469.333h-94.677l-10.667-42.667h116.011L303.339,469.333z M384,362.667c0,11.782-9.551,21.333-21.333,21.333H149.333
				C137.551,384,128,374.449,128,362.667V149.333c0-11.782,9.551-21.333,21.333-21.333h213.333c11.782,0,21.333,9.551,21.333,21.333
				V362.667z"/>
			<circle cx="256" cy="256" r="21.333"/>
			<circle cx="320" cy="256" r="21.333"/>
			<circle cx="192" cy="256" r="21.333"/>
		</g>
	</g>
</g>
<g>
</g>
<g>
</g>
<g>
</g>
<g>
</g>
<g>
</g>
<g>
</g>
<g>
</g>
<g>
</g>
<g>
</g>
<g>
</g>
<g>
</g>
<g>
</g>
<g>
</g>
<g>
</g>
<g>
</g>
</svg>
