<?xml version="1.0" encoding="iso-8859-1"?>
<!-- Generator: Adobe Illustrator 19.0.0, SVG Export Plug-In . SVG Version: 6.00 Build 0)  -->
<svg version="1.1" id="Capa_1" xmlns="http://www.w3.org/2000/svg" xmlns:xlink="http://www.w3.org/1999/xlink" x="0px" y="0px"
	 viewBox="0 0 511.999 511.999" style="enable-background:new 0 0 511.999 511.999;" xml:space="preserve">
<g>
	<g>
		<path d="M367.932,21.592c-4.143,0-7.5,3.357-7.5,7.5v3c0,4.143,3.357,7.5,7.5,7.5s7.5-3.357,7.5-7.5v-3
			C375.432,24.949,372.075,21.592,367.932,21.592z"/>
	</g>
</g>
<g>
	<g>
		<path d="M391.057,21.592c-4.143,0-7.5,3.357-7.5,7.5v3c0,4.143,3.357,7.5,7.5,7.5s7.5-3.357,7.5-7.5v-3
			C398.557,24.949,395.2,21.592,391.057,21.592z"/>
	</g>
</g>
<g>
	<g>
		<path d="M414.182,21.592c-4.143,0-7.5,3.357-7.5,7.5v3c0,4.143,3.357,7.5,7.5,7.5s7.5-3.357,7.5-7.5v-3
			C421.682,24.949,418.325,21.592,414.182,21.592z"/>
	</g>
</g>
<g>
	<g>
		<path d="M465.17,208.785c-4.143,0-7.5,3.357-7.5,7.5v23.321c0,4.894-3.982,8.875-8.875,8.875c-35.096,0-77.848,0-115.978,0
			c-4.894,0-8.875-3.981-8.875-8.875v-116.64c0-4.893,3.981-8.875,8.875-8.875h115.978c4.893,0,8.875,3.982,8.875,8.875v58.32
			c0,4.143,3.357,7.5,7.5,7.5c4.143,0,7.5-3.357,7.5-7.5v-58.32c0-10.541-6.87-19.503-16.365-22.658v-9.717
			c0-8.095-4.961-15.05-12-17.996c0-16.186,0-37.548,0-53.095c0-10.752-8.748-19.5-19.5-19.5h-65.999
			c-10.752,0-19.5,8.748-19.5,19.5v33.592v18.803c-8.08,2.382-14,9.856-14,18.697v9.717c-9.496,3.155-16.365,12.117-16.365,22.658
			v116.641c0,13.165,10.71,23.875,23.875,23.875h26.256v44.826c0,7.369,4.416,13.714,10.734,16.563
			c-1.512,9.985,9.211,63.146-36.365,108.725c-48.511,48.509-126.217,48.531-174.75,0.001
			c-45.592-45.594-34.835-98.612-36.367-108.727c6.318-2.849,10.734-9.194,10.734-16.563v-44.826h10.762
			c10.752,0,19.5-8.748,19.5-19.5V19.5c0-10.752-8.748-19.5-19.5-19.5H58.829c-10.752,0-19.5,8.748-19.5,19.5v55.591
			c0,4.143,3.357,7.5,7.5,7.5s7.5-3.357,7.5-7.5V19.5c0-2.439,2.061-4.5,4.5-4.5h84.991c2.439,0,4.5,2.061,4.5,4.5v224.481
			c0,2.439-2.061,4.5-4.5,4.5h-18.262c-12.369,0-48.964,0-66.729,0c-2.439,0-4.5-2.061-4.5-4.5v-133.89c0-4.143-3.357-7.5-7.5-7.5
			s-7.5,3.357-7.5,7.5v133.891c0,10.752,8.748,19.5,19.5,19.5H69.59v44.826c0,7.369,4.416,13.714,10.734,16.563
			c1.406,10.686-8.82,68.135,36.077,124.333c2.584,3.236,7.303,3.766,10.541,1.179c3.235-2.585,3.764-7.305,1.178-10.54
			C87.201,388.621,96.625,336.405,95.324,326.48h12c1.434,9.06-9.344,67.617,40.76,117.723
			c54.373,54.371,141.567,54.392,195.962-0.001c50.18-50.182,39.308-108.56,40.759-117.722h12
			c-1.438,8.931,9.751,72.183-44.273,126.207c-55.081,55.079-141.477,58.95-200.885,10.84c-3.22-2.608-7.942-2.109-10.548,1.108
			c-2.608,3.219-2.111,7.941,1.108,10.548c65.263,52.853,160.317,48.721,220.931-11.889
			c59.329-59.331,47.108-128.772,48.667-138.424c6.318-2.849,10.734-9.194,10.734-16.563V263.48h26.256
			c13.165,0,23.875-10.71,23.875-23.875v-23.321C472.67,212.142,469.313,208.785,465.17,208.785z M354.306,19.5
			c0-2.439,2.061-4.5,4.5-4.5h65.999c2.44,0,4.5,2.061,4.5,4.5v26.092h-74.999V19.5z M354.306,60.591h74.999v10.5h-74.999V60.591z
			 M340.306,90.591c0-2.439,2.061-4.5,4.5-4.5h2h89.999c2.44,0,4.5,2.061,4.5,4.5v8.5H340.306V90.591z M118.058,308.307
			c0,1.72-1.453,3.173-3.173,3.173c-13.937,0-13.276,0-27.123,0c-1.72,0-3.173-1.453-3.173-3.173V263.48h33.469
			C118.058,263.48,118.058,308.307,118.058,308.307z M407.54,308.307c0,1.72-1.453,3.173-3.173,3.173h-0.061h-27h-0.062
			c-1.72,0-3.173-1.453-3.173-3.173V263.48h33.469V308.307z"/>
	</g>
</g>
<g>
</g>
<g>
</g>
<g>
</g>
<g>
</g>
<g>
</g>
<g>
</g>
<g>
</g>
<g>
</g>
<g>
</g>
<g>
</g>
<g>
</g>
<g>
</g>
<g>
</g>
<g>
</g>
<g>
</g>
</svg>
