<?xml version="1.0" encoding="iso-8859-1"?>
<!-- Generator: Adobe Illustrator 19.0.0, SVG Export Plug-In . SVG Version: 6.00 Build 0)  -->
<svg version="1.1" id="Capa_1" xmlns="http://www.w3.org/2000/svg" xmlns:xlink="http://www.w3.org/1999/xlink" x="0px" y="0px"
	 viewBox="0 0 480 480" style="enable-background:new 0 0 480 480;" xml:space="preserve">
<g>
	<g>
		<g>
			<path d="M416,120V24c0-13.255-10.745-24-24-24H174.632c-6.371-0.02-12.485,2.512-16.976,7.032L71.032,93.656
				c-4.52,4.491-7.052,10.605-7.032,16.976V152h16v16H64v288c0,13.255,10.745,24,24,24h304c13.255,0,24-10.745,24-24V184h-16v-64
				H416z M400,200v256c0,4.418-3.582,8-8,8H88c-4.418,0-8-3.582-8-8V184h16v-48H80v-25.368c-0.002-2.124,0.842-4.162,2.344-5.664
				l86.624-86.624c1.502-1.502,3.54-2.346,5.664-2.344H208v80h32V16h16v80h32V16h16v80h32V16h16v80h32V16h8c4.418,0,8,3.582,8,8v80
				h-16v96H400z"/>
			<rect x="160" y="32" width="32" height="96"/>
			<path d="M372.944,360c6.992-6.018,11.026-14.775,11.056-24c0-17.673-14.327-32-32-32h-48v112h48
				c17.598,0.078,31.927-14.125,32.005-31.722C384.046,374.957,380.005,366.085,372.944,360z M352,400h-32v-32h32
				c8.837,0,16,7.163,16,16S360.837,400,352,400z M352,352h-32v-32h32c8.837,0,16,7.163,16,16S360.837,352,352,352z"/>
			<path d="M183.501,388c10.004,17.327,28.491,28,48.499,28c30.913-0.035,55.965-25.087,56-56h-56v16h36.608
				c-8.871,20.193-32.433,29.372-52.626,20.501c-20.193-8.871-29.372-32.433-20.501-52.626
				c8.871-20.193,32.433-29.372,52.626-20.501c7.794,3.424,14.29,9.249,18.541,16.626l13.848-8
				c-15.464-26.784-49.713-35.961-76.497-20.497C177.214,326.967,168.037,361.216,183.501,388z"/>
			<rect x="176" y="432" width="208" height="16"/>
		</g>
	</g>
</g>
<g>
</g>
<g>
</g>
<g>
</g>
<g>
</g>
<g>
</g>
<g>
</g>
<g>
</g>
<g>
</g>
<g>
</g>
<g>
</g>
<g>
</g>
<g>
</g>
<g>
</g>
<g>
</g>
<g>
</g>
</svg>
